<svg width="156" height="44" viewBox="0 0 156 44" fill="none" xmlns="http://www.w3.org/2000/svg">
<path fill-rule="evenodd" clip-rule="evenodd" d="M0.0010001 12.0481C0.14003 6.25949 4.81407 1.61136 10.553 1.61136C16.3007 1.61136 20.966 6.26156 21.105 12.0481C21.1504 13.9377 19.6762 15.5067 17.8123 15.5527C15.9484 15.5987 14.4006 14.1043 14.3552 12.2147C14.3052 10.1301 12.6238 8.45592 10.553 8.45592C8.49943 8.45592 6.82127 10.1119 6.75185 12.1768C6.76307 14.9455 7.79901 17.6694 8.97591 19.8346C9.55395 20.8981 10.1327 21.7658 10.5617 22.3606C10.7752 22.6567 10.949 22.8815 11.0633 23.0252C11.1203 23.0969 11.1623 23.1481 11.1867 23.1776C11.1989 23.1923 11.2067 23.2015 11.2098 23.2052L11.2086 23.2038L11.207 23.2019C11.2082 23.2033 11.2094 23.2047 11.2106 23.206C12.4309 24.6293 12.2855 26.7862 10.8839 28.0279C9.48001 29.2716 7.34735 29.1261 6.12049 27.7029L8.6625 25.451C6.12049 27.7029 6.11984 27.7022 6.11917 27.7014L6.11447 27.6959L6.1065 27.6866C6.10055 27.6796 6.09332 27.6711 6.08485 27.6611C6.06792 27.6411 6.04603 27.615 6.01952 27.5831C5.96651 27.5192 5.89492 27.4316 5.80743 27.3216C5.6326 27.1019 5.39332 26.7914 5.11123 26.4002C4.54899 25.6206 3.80609 24.5059 3.06247 23.1379C1.60248 20.4518 0 16.5339 0 12.1314V12.0898L0.0010001 12.0481ZM11.2063 23.2011L11.2068 23.2016L11.207 23.2019C11.2068 23.2017 11.2066 23.2014 11.2063 23.2011Z" fill="white"/>
<path fill-rule="evenodd" clip-rule="evenodd" d="M21.2624 12.0505V12.5033C21.2624 14.3703 19.7509 15.8838 17.8865 15.8838C16.0221 15.8838 14.5106 14.3703 14.5106 12.5033V11.9618L14.5116 11.9207C14.6507 6.20272 19.3247 1.61136 25.0636 1.61136C30.8025 1.61136 35.4766 6.20272 35.6156 11.9207L35.6166 11.9618V12.003C35.6166 15.5911 34.4976 18.8089 33.4673 21.0354C32.9433 22.1678 32.4186 23.0943 32.0192 23.7462C31.8188 24.0732 31.6481 24.3341 31.5222 24.5206C31.4592 24.6138 31.4073 24.6887 31.3683 24.7441C31.3488 24.7719 31.3325 24.7947 31.3196 24.8126C31.3132 24.8216 31.3076 24.8293 31.303 24.8358L31.2966 24.8445L31.2927 24.8498C31.2922 24.8506 31.2916 24.8513 28.6803 22.9368L31.2916 24.8513C30.1902 26.3577 28.0778 26.6848 26.5735 25.5819C25.072 24.4811 24.7438 22.3718 25.8376 20.866C25.8392 20.8637 25.8433 20.858 25.8498 20.8488C25.8646 20.8278 25.8915 20.7891 25.929 20.7336C26.004 20.6225 26.1202 20.4455 26.2642 20.2105C26.5535 19.7384 26.947 19.0448 27.3412 18.1929C28.1421 16.4623 28.8553 14.2722 28.8648 12.0477C28.7953 10.008 27.1171 8.37232 25.0636 8.37232C23.0091 8.37232 21.3304 10.0095 21.2624 12.0505Z" fill="white"/>
<path d="M28.581 26.6749C30.5238 26.6749 32.0987 25.0999 32.0987 23.1572C32.0987 21.2144 30.5238 19.6395 28.581 19.6395C26.6383 19.6395 25.0634 21.2144 25.0634 23.1572C25.0634 25.0999 26.6383 26.6749 28.581 26.6749Z" fill="#B7E803"/>
<path d="M63.8297 7.10113C65.7388 7.10113 67.2782 7.71232 68.4277 8.93468C69.5872 10.157 70.1669 11.7772 70.1669 13.8047V23.7389H65.1591V14.2219C65.1591 13.3973 64.9492 12.757 64.5394 12.2816C64.1295 11.8063 63.5298 11.5734 62.7501 11.5734C61.9305 11.5734 61.2908 11.8451 60.8309 12.3787C60.3711 12.9219 60.1512 13.6592 60.1512 14.61V23.7389H55.1434V14.2219C55.1434 13.3973 54.9335 12.757 54.5237 12.2816C54.1138 11.8063 53.5141 11.5734 52.7344 11.5734C51.9148 11.5734 51.2751 11.8451 50.8153 12.3787C50.3555 12.9219 50.1356 13.6592 50.1356 14.61V23.7389H45.1477V7.54739H50.1555V9.0317C51.0652 7.74142 52.5545 7.09143 54.6236 7.09143C56.5628 7.09143 58.0122 7.79963 58.9917 9.22572C60.0113 7.80933 61.6206 7.10113 63.8297 7.10113Z" fill="white"/>
<path d="M87.8691 21.7113C86.1599 23.3605 84.0708 24.1852 81.6018 24.1852C79.1329 24.1852 77.0438 23.3605 75.3345 21.7113C73.6253 20.0621 72.7656 18.0345 72.7656 15.6383C72.7656 13.2421 73.6253 11.2242 75.3345 9.56527C77.0438 7.91604 79.1329 7.09143 81.6018 7.09143C84.0708 7.09143 86.1599 7.91604 87.8691 9.56527C89.5784 11.2145 90.438 13.2421 90.438 15.6383C90.438 18.0442 89.5884 20.0621 87.8691 21.7113ZM78.863 18.3935C79.5927 19.1017 80.5123 19.4606 81.6018 19.4606C82.6914 19.4606 83.601 19.1017 84.3406 18.3935C85.0803 17.6853 85.4402 16.7636 85.4402 15.6383C85.4402 14.5129 85.0703 13.601 84.3406 12.8831C83.611 12.1652 82.6914 11.816 81.6018 11.816C80.5123 11.816 79.6027 12.1749 78.863 12.8831C78.1233 13.5913 77.7635 14.5129 77.7635 15.6383C77.7635 16.7636 78.1333 17.6853 78.863 18.3935Z" fill="white"/>
<path d="M98.2748 10.4285C98.5846 9.39051 99.2144 8.595 100.164 8.05172C101.114 7.49875 102.153 7.22711 103.283 7.22711V12.7278C102.063 12.5337 100.924 12.7375 99.8641 13.3292C98.8045 13.921 98.2848 14.9494 98.2848 16.424V23.7388H93.2769V7.54725H98.2848V10.4285H98.2748Z" fill="white"/>
<path d="M117.226 7.54739H122.234V23.7292H117.226V22.2061C116.047 23.5255 114.388 24.1852 112.259 24.1852C110.059 24.1852 108.18 23.3605 106.621 21.7113C105.062 20.0621 104.282 18.0345 104.282 15.6383C104.282 13.2421 105.062 11.2242 106.621 9.56527C108.18 7.91604 110.059 7.09143 112.259 7.09143C114.398 7.09143 116.047 7.75112 117.226 9.0705V7.54739ZM110.389 18.5293C111.119 19.2375 112.079 19.5964 113.258 19.5964C114.438 19.5964 115.397 19.2375 116.127 18.5293C116.857 17.8211 117.226 16.8607 117.226 15.648C117.226 14.4353 116.857 13.4749 116.127 12.7667C115.397 12.0585 114.438 11.6996 113.258 11.6996C112.079 11.6996 111.119 12.0585 110.389 12.7667C109.66 13.4749 109.29 14.4353 109.29 15.648C109.28 16.851 109.65 17.8114 110.389 18.5293Z" fill="white"/>
<path d="M125.893 23.7389V0.106445H130.901V23.7389H125.893Z" fill="white"/>
<path d="M139.187 5.26752C138.597 5.8399 137.888 6.12124 137.068 6.12124C136.248 6.12124 135.539 5.8399 134.949 5.26752C134.359 4.69514 134.069 4.00635 134.069 3.21084C134.069 2.41533 134.359 1.72654 134.949 1.15416C135.539 0.581784 136.248 0.300446 137.068 0.300446C137.888 0.300446 138.597 0.591485 139.187 1.15416C139.777 1.72654 140.067 2.41533 140.067 3.21084C140.067 4.01605 139.777 4.69514 139.187 5.26752ZM134.569 23.7388V7.54733H139.577V23.7291H134.569V23.7388Z" fill="white"/>
<path d="M147.803 12.2817C147.803 12.6018 148.083 12.8735 148.653 13.0772C149.223 13.2809 149.902 13.4846 150.702 13.6884C151.502 13.8921 152.301 14.154 153.101 14.4839C153.901 14.804 154.58 15.3376 155.15 16.0846C155.72 16.8316 156 17.7629 156 18.8883C156 20.6345 155.33 21.9539 154.001 22.8561C152.671 23.7486 151.022 24.1949 149.063 24.1949C145.544 24.1949 143.155 22.9143 141.896 20.3435L146.234 17.9473C146.674 19.2181 147.623 19.8584 149.073 19.8584C150.272 19.8584 150.872 19.5286 150.872 18.8592C150.872 18.539 150.592 18.2674 150.022 18.054C149.453 17.8405 148.773 17.6271 147.973 17.4234C147.174 17.2197 146.374 16.948 145.574 16.6182C144.775 16.2883 144.095 15.7645 143.525 15.0466C142.955 14.3287 142.675 13.4555 142.675 12.4272C142.675 10.7392 143.305 9.43919 144.565 8.50786C145.824 7.57654 147.373 7.12057 149.213 7.12057C150.592 7.12057 151.852 7.42132 152.981 8.0131C154.111 8.60488 155.03 9.4683 155.72 10.5839L151.452 12.8153C150.922 11.8645 150.172 11.3892 149.213 11.3892C148.273 11.3698 147.803 11.6705 147.803 12.2817Z" fill="white"/>
<rect x="74" y="29" width="82" height="15" rx="7.5" fill="#B7E803"/>
<path d="M88.4399 36.9985C88.4399 38.2948 88.0801 39.2866 87.3604 39.9741C86.6406 40.658 85.604 41 84.2505 41H82.0537V33.1475H84.4814C85.7311 33.1475 86.7033 33.484 87.3979 34.1572C88.0926 34.8304 88.4399 35.7775 88.4399 36.9985ZM87.0864 37.0415C87.0864 35.1616 86.2074 34.2217 84.4492 34.2217H83.3374V39.9204H84.2505C86.1411 39.9204 87.0864 38.9608 87.0864 37.0415ZM95.0034 41L94.2192 38.8193H91.2168L90.4487 41H89.0952L92.0332 33.1152H93.4297L96.3677 41H95.0034ZM93.8809 37.7129L93.145 35.5752C93.0913 35.432 93.0161 35.2064 92.9194 34.8984C92.8263 34.5905 92.7619 34.3649 92.7261 34.2217C92.6294 34.6621 92.488 35.1437 92.3018 35.6665L91.5928 37.7129H93.8809ZM101.932 38.8677C101.932 39.5659 101.68 40.1138 101.175 40.5112C100.67 40.9087 99.9735 41.1074 99.0854 41.1074C98.1974 41.1074 97.4705 40.9696 96.9048 40.6938V39.48C97.2629 39.6483 97.6424 39.7808 98.0435 39.8774C98.4481 39.9741 98.8241 40.0225 99.1714 40.0225C99.6799 40.0225 100.054 39.9258 100.294 39.7324C100.537 39.5391 100.659 39.2795 100.659 38.9536C100.659 38.66 100.548 38.4111 100.326 38.207C100.104 38.0029 99.6458 37.7612 98.9512 37.4819C98.235 37.1919 97.7301 36.8607 97.4365 36.4883C97.1429 36.1159 96.9961 35.6683 96.9961 35.1455C96.9961 34.4902 97.2288 33.9746 97.6943 33.5986C98.1598 33.2227 98.7847 33.0347 99.5688 33.0347C100.321 33.0347 101.069 33.1994 101.814 33.5288L101.406 34.5762C100.708 34.2826 100.084 34.1357 99.5366 34.1357C99.1213 34.1357 98.8062 34.2271 98.5913 34.4097C98.3765 34.5887 98.269 34.8268 98.269 35.124C98.269 35.3281 98.312 35.5036 98.3979 35.6504C98.4839 35.7936 98.6253 35.9297 98.8223 36.0586C99.0192 36.1875 99.3737 36.3576 99.8857 36.5688C100.462 36.8088 100.885 37.0326 101.153 37.2402C101.422 37.4479 101.619 37.6825 101.744 37.9438C101.869 38.2052 101.932 38.5132 101.932 38.8677ZM109.645 41H108.356V37.4604H104.736V41H103.452V33.1475H104.736V36.3594H108.356V33.1475H109.645V41ZM111.713 33.1475H114.044C115.125 33.1475 115.906 33.305 116.386 33.6201C116.869 33.9352 117.111 34.4329 117.111 35.1133C117.111 35.5716 116.993 35.953 116.756 36.2573C116.52 36.5617 116.18 36.7533 115.736 36.832V36.8857C116.287 36.9896 116.692 37.1955 116.95 37.5034C117.211 37.8078 117.342 38.2214 117.342 38.7441C117.342 39.4495 117.095 40.0028 116.601 40.4038C116.11 40.8013 115.426 41 114.549 41H111.713V33.1475ZM112.997 36.3916H114.232C114.769 36.3916 115.161 36.3075 115.408 36.1392C115.655 35.9673 115.779 35.6772 115.779 35.269C115.779 34.9002 115.645 34.6335 115.376 34.4688C115.111 34.304 114.688 34.2217 114.108 34.2217H112.997V36.3916ZM112.997 37.4336V39.9204H114.361C114.898 39.9204 115.303 39.8184 115.575 39.6143C115.85 39.4066 115.988 39.0807 115.988 38.6367C115.988 38.2285 115.849 37.9259 115.569 37.729C115.29 37.5321 114.866 37.4336 114.296 37.4336H112.997ZM125.946 37.063C125.946 38.3413 125.626 39.335 124.985 40.0439C124.347 40.7529 123.443 41.1074 122.272 41.1074C121.087 41.1074 120.176 40.7565 119.539 40.0547C118.905 39.3493 118.588 38.3485 118.588 37.0522C118.588 35.756 118.907 34.7606 119.544 34.0659C120.185 33.3713 121.098 33.0239 122.283 33.0239C123.451 33.0239 124.353 33.3766 124.99 34.082C125.628 34.7874 125.946 35.7811 125.946 37.063ZM119.952 37.063C119.952 38.0298 120.147 38.7638 120.538 39.2651C120.928 39.7629 121.506 40.0117 122.272 40.0117C123.035 40.0117 123.61 39.7646 123.997 39.2705C124.387 38.7764 124.582 38.0405 124.582 37.063C124.582 36.0998 124.389 35.3693 124.002 34.8716C123.619 34.3739 123.046 34.125 122.283 34.125C121.513 34.125 120.931 34.3739 120.538 34.8716C120.147 35.3693 119.952 36.0998 119.952 37.063ZM132.504 41L131.72 38.8193H128.718L127.95 41H126.596L129.534 33.1152H130.931L133.869 41H132.504ZM131.382 37.7129L130.646 35.5752C130.592 35.432 130.517 35.2064 130.42 34.8984C130.327 34.5905 130.263 34.3649 130.227 34.2217C130.13 34.6621 129.989 35.1437 129.803 35.6665L129.094 37.7129H131.382ZM136.189 36.7998H137.081C137.679 36.7998 138.112 36.6888 138.38 36.4668C138.649 36.2448 138.783 35.9154 138.783 35.4785C138.783 35.0345 138.638 34.7158 138.348 34.5225C138.058 34.3291 137.621 34.2324 137.038 34.2324H136.189V36.7998ZM136.189 37.8633V41H134.905V33.1475H137.124C138.137 33.1475 138.887 33.3372 139.374 33.7168C139.861 34.0964 140.104 34.6693 140.104 35.4355C140.104 36.4131 139.596 37.1095 138.579 37.5249L140.797 41H139.336L137.457 37.8633H136.189ZM148.328 36.9985C148.328 38.2948 147.968 39.2866 147.248 39.9741C146.528 40.658 145.492 41 144.138 41H141.941V33.1475H144.369C145.619 33.1475 146.591 33.484 147.286 34.1572C147.98 34.8304 148.328 35.7775 148.328 36.9985ZM146.974 37.0415C146.974 35.1616 146.095 34.2217 144.337 34.2217H143.225V39.9204H144.138C146.029 39.9204 146.974 38.9608 146.974 37.0415Z" fill="black"/>
</svg>
